<svg xmlns="http://www.w3.org/2000/svg" width="48" height="48" viewBox="0 0 48 48">
  <title>JB_logo</title>
  <g id="Layer_3" data-name="Layer 3">
    <g>
      <rect x="0.00006" y="0.00316" width="47.99989" height="47.99368"/>
      <rect x="4.13973" y="38.99659" width="17.99995" height="2.99961" fill="#fff"/>
      <g>
        <path d="M3.93841,12.63762l1.39705-1.31846a1.584,1.584,0,0,0,1.22937.72651c.53644.00007.883-.36864.883-1.095L7.448,6.00019l2.157.00029-.00019,4.96165a2.90563,2.90563,0,0,1-.77126,2.20135,2.94776,2.94776,0,0,1-2.14587.79311A3.19536,3.19536,0,0,1,3.93841,12.63762Z" fill="#fff"/>
        <path d="M10.10773,6.00055l6.29219.00082-.00006,1.8327-4.14635-.00054,0,1.19571,3.75517.0005-.00006,1.70973L12.2534,10.739l0,1.24041,4.20223.00055-.00007,1.84386L10.10744,13.823Z" fill="#fff"/>
        <path d="M19.2343,7.90149l-2.33585-.0003.00007-1.89975,6.851.0009-.00007,1.89975-2.347-.00031-.00022,5.92266-2.16817-.00029Z" fill="#fff"/>
        <path d="M4.13947,15.65049,8.1517,15.651a2.93035,2.93035,0,0,1,2.13466.69315,1.76039,1.76039,0,0,1,.5029,1.274v.02236a1.81035,1.81035,0,0,1-1.20713,1.74309,1.8985,1.8985,0,0,1,1.55344,1.91111v.02237c0,1.341-1.09537,2.15658-2.96176,2.15633l-4.03464-.00053Zm4.51509,2.41439c0-.43585-.34641-.67055-.98348-.67063l-1.4194-.00019-.00005,1.37449,1.36351.00018c.65939.00009,1.0394-.22336,1.03942-.68153Zm-.74885,2.22368-1.65414-.00022,0,1.44154L7.928,21.7301c.67055.00009,1.03941-.25689,1.03942-.71505v-.02233C8.96742,20.56808,8.63215,20.28865,7.90571,20.28856Z" fill="#fff"/>
        <path d="M11.45973,15.65145l3.69935.00049a3.46424,3.46424,0,0,1,2.54815.83846A2.44243,2.44243,0,0,1,18.4,18.312v.02235a2.478,2.478,0,0,1-1.60941,2.41355l1.86628,2.72691-2.49229-.00032L14.58887,21.1052l-.96117-.00013-.00009,2.36907-2.16817-.00028Zm3.60976,3.75524c.72644.0001,1.16235-.35744,1.16237-.92737V18.457c0-.62583-.45818-.93876-1.17347-.93885L13.62783,17.518l-.00007,1.88854Z" fill="#fff"/>
        <path d="M20.93691,15.59685l2.09.00028,3.33031,7.87869-2.3247-.00031-.55879-1.40809L20.445,22.067l-.5589,1.40795-2.2688-.0003Zm1.89977,4.78309-.87163-2.21274L21.082,20.3797Z" fill="#fff"/>
        <path d="M26.61419,15.65345l2.16817.00028-.00029,7.82241-2.16817-.00029Z" fill="#fff"/>
        <path d="M29.31873,15.6538l2.02289.00027,3.21858,4.13515.00015-4.13473,2.14586.00029-.00029,7.8224-1.8888-.00025-3.35268-4.29158-.00016,4.29114-2.14584-.00028Z" fill="#fff"/>
        <path d="M36.84187,22.315l1.20705-1.44138a4.05361,4.05361,0,0,0,2.537.939c.59234.00008.9053-.201.90531-.5363V21.254c0-.33528-.257-.50293-1.32991-.76009-1.66528-.38014-2.95056-.84967-2.9505-2.44767v-.02236c.00005-1.45271,1.15127-2.503,3.0289-2.50277a4.92471,4.92471,0,0,1,3.21869,1.03969l-1.0841,1.5308a3.8411,3.8411,0,0,0-2.19055-.77132c-.52528-.00007-.78235.21219-.78236.50275v.02235c0,.3576.2682.51409,1.36348.76006,1.78816.39135,2.90583.9726,2.90577,2.4365v.02236c-.00006,1.598-1.26306,2.54769-3.163,2.54744A5.4862,5.4862,0,0,1,36.84187,22.315Z" fill="#fff"/>
      </g>
    </g>
  </g>
</svg>
