<svg xmlns="http://www.w3.org/2000/svg" width="104" height="24" viewBox="0 0 104 24">
  <defs>
    <linearGradient id="linear-gradient" x1="-1.31769" y1="20.08946" x2="17.85276" y2="0.91901" gradientUnits="userSpaceOnUse">
      <stop offset="0.10753" stop-color="#8f67ff"/>
      <stop offset="0.36162" stop-color="#b8639b"/>
      <stop offset="0.82323" stop-color="#f7861e"/>
    </linearGradient>
  </defs>
  <title>kotlin_logo</title>
  <g id="Layer_3" data-name="Layer 3">
    <g>
      <path d="M29,2h4.61224V11.166L42.05866,2h5.661l-8.56593,8.89765,8.92691,12.07085H42.53915L36.03909,14.0416l-2.42685,2.5171v6.40982H29Z" fill="#fff"/>
      <path d="M46.22212,15.02942v-.05854a8.42888,8.42888,0,0,1,8.71716-8.35862,8.34619,8.34619,0,0,1,8.65618,8.29764v.061a8.42692,8.42692,0,0,1-8.71716,8.35618A8.34324,8.34324,0,0,1,46.22212,15.02942Zm12.88061,0v-.05854a4.267,4.267,0,0,0-4.22443-4.43419,4.114,4.114,0,0,0-4.16345,4.37321v.061a4.267,4.267,0,0,0,4.22443,4.43419A4.11464,4.11464,0,0,0,59.10273,15.02942Z" fill="#fff"/>
      <path d="M65.15158,18.41481V10.80742H63.23449V6.91226h1.91709V2.80978h4.5537V6.91226h3.77321v3.89516H69.70528V17.666c0,1.04879.44879,1.55855,1.46831,1.55855a4.6372,4.6372,0,0,0,2.24636-.5683V22.31a6.72424,6.72424,0,0,1-3.59515.92928C67.0394,23.23925,65.15158,22.12948,65.15158,18.41481Z" fill="#fff"/>
      <path d="M75.55168,1.10245h4.5537V22.96852h-4.5537Z" fill="#fff"/>
      <path d="M81.98346,1.10245h4.79273V5.14639H81.98346ZM82.103,6.91226h4.5537V22.96852H82.103Z" fill="#fff"/>
      <path d="M88.44694,6.91226h4.55371V9.19033a5.67846,5.67846,0,0,1,4.70248-2.57807c3.44393,0,5.45127,2.27807,5.45127,5.961V22.96852H98.6007V14.01233c0-2.15612-1.01708-3.26588-2.75369-3.26588-1.739,0-2.84636,1.10976-2.84636,3.26588v8.95619H88.44694Z" fill="#fff"/>
    </g>
    <g>
      <polygon points="22.003 2 11.545 2 1 2 1 13.087 1 13.089 1 23 22.003 23 11.531 12.453 22.003 2" fill="#0eaeff"/>
      <polygon points="11.544 2 1 13.088 1 23 11.528 12.453 22 2 11.544 2" fill="url(#linear-gradient)"/>
    </g>
  </g>
</svg>
